HIERARCHY
ROOT Hips
{
	OFFSET -0.001795 -0.223333 0.028219
	CHANNELS 6 Xposition Yposition Zposition Zrotation Yrotation Xrotation 
	JOINT LeftUpLeg
	{
		OFFSET 0.069520 -0.091406 -0.006815
		CHANNELS 3 Zrotation Yrotation Xrotation
		JOINT LeftLeg
		{
			OFFSET 0.034277 -0.375199 -0.004496
			CHANNELS 3 Zrotation Yrotation Xrotation
			JOINT LeftFoot
			{
				OFFSET -0.013596 -0.397961 -0.043693
				CHANNELS 3 Zrotation Yrotation Xrotation
				JOINT LeftToe
				{
					OFFSET 0.026358 -0.055791 0.119288
					CHANNELS 3 Zrotation Yrotation Xrotation
					End Site
					{
						OFFSET 0.000000 0.000000 0.000000
					}
				}
			}
		}
	}
	JOINT RightUpLeg
	{
		OFFSET -0.067670 -0.090522 -0.004320
		CHANNELS 3 Zrotation Yrotation Xrotation
		JOINT RightLeg
		{
			OFFSET -0.038290 -0.382569 -0.008850
			CHANNELS 3 Zrotation Yrotation Xrotation
			JOINT RightFoot
			{
				OFFSET 0.015774 -0.398415 -0.042312
				CHANNELS 3 Zrotation Yrotation Xrotation
				JOINT RightToe
				{
					OFFSET -0.025372 -0.048144 0.123348
					CHANNELS 3 Zrotation Yrotation Xrotation
					End Site
					{
						OFFSET 0.000000 0.000000 0.000000
					}
				}
			}
		}
	}
	JOINT Spine
	{
		OFFSET -0.002533 0.108963 -0.026696
		CHANNELS 3 Zrotation Yrotation Xrotation
		JOINT Spine1
		{
			OFFSET 0.005487 0.135180 0.001092
			CHANNELS 3 Zrotation Yrotation Xrotation
			JOINT Spine2
			{
				OFFSET 0.001457 0.052922 0.025425
				CHANNELS 3 Zrotation Yrotation Xrotation
				JOINT Neck
				{
					OFFSET -0.002778 0.213870 -0.042857
					CHANNELS 3 Zrotation Yrotation Xrotation
					JOINT Head
					{
						OFFSET 0.005152 0.064970 0.051349
						CHANNELS 3 Zrotation Yrotation Xrotation
						End Site
						{
							OFFSET 0.000000 0.000000 0.000000
						}
					}
				}
				JOINT LeftShoulder
				{
					OFFSET 0.078845 0.121749 -0.034090
					CHANNELS 3 Zrotation Yrotation Xrotation
					JOINT LeftArm
					{
						OFFSET 0.090977 0.030469 -0.008868
						CHANNELS 3 Zrotation Yrotation Xrotation
						JOINT LeftForeArm
						{
							OFFSET 0.259612 -0.012772 -0.027456
							CHANNELS 3 Zrotation Yrotation Xrotation
							JOINT LeftHand
							{
								OFFSET 0.249234 0.008986 -0.001171
								CHANNELS 3 Zrotation Yrotation Xrotation
								End Site
								{
									OFFSET 0.000000 0.000000 0.000000
								}
							}
						}
					}
				}
				JOINT RightShoulder
				{
					OFFSET -0.081759 0.118833 -0.038615
					CHANNELS 3 Zrotation Yrotation Xrotation
					JOINT RightArm
					{
						OFFSET -0.096012 0.032551 -0.009143
						CHANNELS 3 Zrotation Yrotation Xrotation
						JOINT RightForeArm
						{
							OFFSET -0.253742 -0.013329 -0.021401
							CHANNELS 3 Zrotation Yrotation Xrotation
							JOINT RightHand
							{
								OFFSET -0.255298 0.007772 -0.005559
								CHANNELS 3 Zrotation Yrotation Xrotation
								End Site
								{
									OFFSET 0.000000 0.000000 0.000000
								}
							}
						}
					}
				}
			}
		}
	}
}
MOTION
Frames: 16
Frame Time: 0.05000000
22.021393 0.960605 42.953449 3.911866 36.196182 8.794842 8.493760 -4.892754 -47.674385 -15.005032 1.593082 29.287604 9.858031 19.437361 -12.066304 0.000000 0.000000 0.000000 -5.044419 0.873490 -18.970835 8.223555 -3.898805 21.889094 -2.445417 -4.218852 -39.074953 0.000000 0.000000 0.000000 -0.927562 0.237319 -4.399646 -1.803985 1.210647 -22.197886 3.653521 12.070972 38.142186 7.939920 2.737489 -35.310727 0.000000 0.000000 0.000000 16.715613 7.280500 3.963293 -80.700484 0.987278 -28.849873 -33.869741 -28.975835 8.519094 0.000000 0.000000 0.000000 -17.140981 -7.050214 -6.451780 101.063095 10.995510 28.142887 -15.422599 56.141431 -3.349378 0.000000 0.000000 0.000000 
22.690825 0.957388 43.723774 3.669609 33.535149 6.348422 7.879717 -4.565479 -45.241355 -11.951883 1.045326 24.109411 9.929841 18.670225 -11.823528 0.000000 0.000000 0.000000 -5.838277 0.581004 -12.563516 9.462850 -4.188116 21.361130 -3.072021 -0.775016 -41.698735 0.000000 0.000000 0.000000 -1.393175 0.135897 -2.346538 -1.744916 1.179183 -22.750206 4.073954 13.095890 38.219499 8.002659 2.721459 -36.184704 0.000000 0.000000 0.000000 17.061643 8.010797 3.861278 -80.176973 2.803677 -29.818539 -35.654014 -27.957606 8.625103 0.000000 0.000000 0.000000 -17.392617 -6.950245 -6.395520 101.722428 12.834782 30.074200 -17.570234 60.555420 -4.707749 0.000000 0.000000 0.000000 
23.339968 0.955667 44.477310 3.170502 31.416565 8.997089 8.541162 -4.299041 -47.307674 -12.321602 1.269371 25.585853 9.945429 19.969774 -11.164087 0.000000 0.000000 0.000000 -6.096876 0.797212 -13.421209 9.035037 -4.125341 23.393388 -3.452605 -1.468861 -43.754658 0.000000 0.000000 0.000000 -1.892472 0.341332 -6.883893 -1.604714 1.117591 -22.659946 4.060360 13.439031 38.535711 7.456068 2.890733 -36.143703 0.000000 0.000000 0.000000 17.281447 7.881039 3.881683 -80.611959 3.453274 -30.217441 -35.429585 -28.730248 8.958534 0.000000 0.000000 0.000000 -17.469569 -6.833860 -6.291998 102.594072 12.409947 30.167778 -16.469009 63.366188 -4.330692 0.000000 0.000000 0.000000 
23.953739 0.957063 45.165638 2.696499 30.562681 12.430044 8.728788 -4.330326 -50.015418 -13.404599 1.626098 28.067266 9.917425 21.538216 -9.656945 0.000000 0.000000 0.000000 -6.567541 1.017700 -14.252512 9.323878 -4.242506 24.115462 -3.434564 -1.114790 -44.353307 0.000000 0.000000 0.000000 -2.377906 0.511122 -12.120139 -1.648071 1.115368 -22.215447 3.614880 12.582385 38.655926 7.096670 2.909636 -36.691011 0.000000 0.000000 0.000000 17.097105 8.064138 3.643967 -80.555760 3.553799 -29.469358 -35.851486 -29.426862 9.477076 0.000000 0.000000 0.000000 -17.768652 -6.785524 -6.128073 103.048377 10.881374 28.409064 -8.637926 63.172377 0.153761 0.000000 0.000000 0.000000 
24.522030 0.963325 45.750751 2.742715 30.324366 14.424273 7.387536 -4.634397 -50.324612 -13.115848 1.523499 29.668927 9.298749 19.958342 -9.994283 0.000000 0.000000 0.000000 -7.421970 1.107371 -16.846439 8.152650 -4.953108 30.828873 -3.437653 0.890367 -42.855947 0.000000 0.000000 0.000000 -2.817757 0.564741 -14.887854 -1.635145 1.111802 -21.882655 2.886276 11.456622 38.872698 6.825954 2.861038 -36.883098 0.000000 0.000000 0.000000 17.199927 7.518193 3.645002 -80.377350 1.967903 -27.588865 -34.945623 -30.515078 9.794858 0.000000 0.000000 0.000000 -17.683493 -7.588686 -6.109510 103.275365 8.524302 25.271105 -0.121136 60.456717 4.753640 0.000000 0.000000 0.000000 
25.025663 0.971618 46.216274 2.353914 30.091612 16.507931 6.034048 -4.609092 -48.773057 -12.088528 1.180412 27.890628 9.052140 17.700594 -13.202367 0.000000 0.000000 0.000000 -8.075554 1.107012 -23.885353 5.903444 -6.761660 44.288010 -3.232373 5.070640 -37.177020 0.000000 0.000000 0.000000 -2.438147 0.634503 -17.524405 -1.969336 1.190499 -21.446830 2.242503 11.159735 39.027551 7.100147 2.717832 -37.833091 0.000000 0.000000 0.000000 17.930140 6.336194 4.054074 -81.041800 -0.958622 -25.610056 -34.507545 -32.147491 10.465942 0.000000 0.000000 0.000000 -18.071411 -7.724115 -6.051135 102.908274 6.396160 22.643903 1.451483 54.875279 4.589801 0.000000 0.000000 0.000000 
25.450275 0.978977 46.594490 2.445207 28.919704 16.833997 4.476005 -4.379169 -45.402883 -11.740821 1.094543 25.551555 9.869442 18.553200 -16.412062 0.000000 0.000000 0.000000 -8.736653 0.610636 -32.092690 2.258207 -7.589961 59.461869 -2.478402 5.671408 -26.731429 0.000000 0.000000 0.000000 -2.325062 0.648778 -17.720633 -2.165719 1.224462 -21.552889 1.565248 10.583312 39.068681 6.968273 2.599305 -37.630625 0.000000 0.000000 0.000000 18.221606 5.444150 4.129737 -81.645701 -2.983439 -23.766582 -34.236002 -33.970606 11.237002 0.000000 0.000000 0.000000 -17.920399 -8.176749 -5.911564 102.464607 4.083148 18.858099 5.410700 51.155167 5.921267 0.000000 0.000000 0.000000 
25.806982 0.985053 46.922985 2.369721 27.186864 14.968895 2.638718 -3.785366 -38.899672 -11.849211 1.117458 21.648762 11.171790 20.827181 -18.914426 0.000000 0.000000 0.000000 -9.078145 0.076871 -36.505868 1.009685 -7.264648 66.418135 -2.424376 4.157673 -22.304209 0.000000 0.000000 0.000000 -2.083486 0.607838 -14.843801 -2.298724 1.246916 -21.844697 0.924060 10.465554 38.710285 6.314226 2.733200 -38.100112 0.000000 0.000000 0.000000 18.443654 4.495590 4.190759 -82.766717 -5.003417 -22.219118 -34.907984 -35.433741 12.184086 0.000000 0.000000 0.000000 -17.978526 -8.633843 -5.799803 100.101532 2.175767 14.686513 8.220767 48.338546 6.814445 0.000000 0.000000 0.000000 
26.114660 0.989237 47.246597 1.723301 28.116541 13.934836 1.140975 -3.428869 -34.427601 -10.749832 0.806333 19.159091 11.464057 18.942264 -21.651848 0.000000 0.000000 0.000000 -9.302525 -0.371484 -38.729767 3.257336 -8.881667 64.876347 -3.684728 -1.521528 -24.474559 0.000000 0.000000 0.000000 -1.398045 0.587610 -13.571022 -2.487263 1.298650 -21.829196 -0.068837 8.885368 38.621059 5.937313 2.701827 -38.223086 0.000000 0.000000 0.000000 18.240505 3.371673 4.134521 -82.467221 -7.458820 -19.482312 -36.346535 -38.507403 13.985021 0.000000 0.000000 0.000000 -17.574512 -8.995155 -5.609865 98.944609 0.478305 11.187556 9.792307 45.171426 6.903580 0.000000 0.000000 0.000000 
26.369171 0.990251 47.577782 1.515118 28.179809 13.825665 0.570129 -2.922634 -30.587063 -10.326870 0.693879 16.583612 11.634327 18.304317 -21.965084 0.000000 0.000000 0.000000 -9.970294 -0.626974 -38.934379 6.625336 -9.169624 55.386062 -4.032448 -5.225254 -26.449331 0.000000 0.000000 0.000000 -1.049219 0.592236 -13.599864 -2.527031 1.312729 -21.723302 -0.897868 7.754461 38.605928 5.784901 2.584652 -37.919081 0.000000 0.000000 0.000000 18.684847 2.337190 4.225820 -82.619447 -9.516121 -17.303681 -37.303087 -41.114225 15.621511 0.000000 0.000000 0.000000 -17.680689 -9.883071 -5.581063 97.285230 -2.563518 6.695443 14.068624 42.416363 8.051356 0.000000 0.000000 0.000000 
26.567852 0.990350 47.905262 1.400278 27.527293 15.531898 0.035214 -2.837326 -30.128816 -9.813396 0.612350 15.779090 11.690084 18.142572 -23.051043 0.000000 0.000000 0.000000 -10.379658 -0.564145 -39.374252 9.014315 -7.745510 43.805801 -3.888491 -6.551642 -30.719757 0.000000 0.000000 0.000000 -0.752205 0.668697 -16.428117 -2.528848 1.309619 -21.451743 -1.300397 7.361203 38.675822 5.716380 2.499350 -37.634060 0.000000 0.000000 0.000000 19.270630 1.860400 4.307237 -83.541680 -10.722637 -16.067105 -37.966841 -43.450273 17.137527 0.000000 0.000000 0.000000 -18.072801 -10.909259 -5.671822 96.948007 -5.928648 2.982706 16.796176 39.152662 8.253616 0.000000 0.000000 0.000000 
26.723089 0.989497 48.220940 1.613928 26.424075 15.388325 -1.255139 -2.559903 -27.168494 -8.693725 0.483502 14.628746 11.741224 17.032405 -25.016634 0.000000 0.000000 0.000000 -10.749105 -0.141509 -34.868504 10.289715 -5.574689 31.438734 -3.371812 -5.884963 -31.681733 0.000000 0.000000 0.000000 -0.437796 0.669323 -16.432971 -2.693109 1.344461 -21.466504 -1.246956 7.731130 38.446289 5.503462 2.564460 -37.681134 0.000000 0.000000 0.000000 19.444229 1.055586 4.437203 -83.236212 -12.946623 -14.090301 -38.432306 -43.908607 17.542818 0.000000 0.000000 0.000000 -18.170344 -11.946563 -5.852963 96.557990 -8.776423 0.003894 18.272365 37.088653 8.236176 0.000000 0.000000 0.000000 
26.850227 0.989643 48.514721 1.704923 26.378856 14.131720 -1.757703 -2.160711 -23.654900 -8.012833 0.404557 13.154224 11.932598 16.077707 -26.680706 0.000000 0.000000 0.000000 -10.327620 0.261061 -29.848980 10.374326 -4.426344 24.977104 -3.371510 -7.183722 -33.862872 0.000000 0.000000 0.000000 -0.087594 0.634708 -15.171874 -2.718736 1.358181 -21.476975 -1.308874 7.996414 37.916915 5.650856 2.521118 -37.480111 0.000000 0.000000 0.000000 19.355167 0.428383 4.559136 -82.899012 -14.287412 -13.111138 -39.729636 -45.320758 18.669284 0.000000 0.000000 0.000000 -18.230363 -12.107820 -5.891435 96.307336 -10.307473 -1.503795 18.936387 36.268181 8.179800 0.000000 0.000000 0.000000 
26.948690 0.990090 48.775734 2.005418 26.203271 13.033231 -1.923943 -1.727706 -19.984626 -8.290181 0.446539 11.762123 11.880538 14.878037 -27.662562 0.000000 0.000000 0.000000 -10.271442 0.464179 -24.965385 10.967816 -3.950537 20.537969 -3.443635 -8.522773 -35.360340 0.000000 0.000000 0.000000 -0.044698 0.591125 -13.913090 -2.832522 1.391176 -21.524463 -1.238078 8.809858 37.702010 5.791503 2.549867 -37.210072 0.000000 0.000000 0.000000 19.393595 0.183972 4.734612 -82.630986 -15.175874 -12.888944 -41.320261 -45.614664 19.395614 0.000000 0.000000 0.000000 -18.360434 -12.514365 -6.094483 96.116967 -11.647370 -2.324436 19.916558 35.745562 8.322030 0.000000 0.000000 0.000000 
27.014126 0.990939 48.983025 1.881766 25.995225 13.186386 -1.149958 -1.583678 -19.136406 -8.975779 0.530611 11.963000 11.728446 14.181081 -28.384106 0.000000 0.000000 0.000000 -10.355214 0.598622 -22.301425 11.806331 -3.660380 16.693766 -3.394717 -9.179509 -35.505846 0.000000 0.000000 0.000000 0.605852 0.622014 -14.556604 -2.889520 1.401611 -21.525802 -0.863380 9.464420 37.650885 6.175855 2.488431 -37.855337 0.000000 0.000000 0.000000 19.238056 0.440171 4.746631 -83.124151 -14.079111 -14.121284 -43.679330 -44.870349 20.116806 0.000000 0.000000 0.000000 -17.689291 -12.915021 -6.262568 95.371009 -11.459995 -1.898973 20.052172 35.374406 8.334810 0.000000 0.000000 0.000000 
27.034855 0.992627 49.141880 1.961331 25.552563 14.727158 -0.941613 -1.599151 -19.670223 -8.582379 0.482914 11.765919 11.540070 13.884484 -28.106697 0.000000 0.000000 0.000000 -10.476501 0.778804 -21.201684 12.315630 -3.220689 12.723451 -3.327925 -10.528305 -35.200232 0.000000 0.000000 0.000000 0.801883 0.695393 -16.794967 -2.818319 1.382979 -21.282027 -0.436789 9.964415 37.540761 6.353536 2.475188 -38.366122 0.000000 0.000000 0.000000 19.381229 0.957434 4.743993 -83.934360 -12.509655 -15.616302 -44.411874 -43.105730 19.681868 0.000000 0.000000 0.000000 -17.378466 -12.873154 -6.272153 94.748702 -10.515055 -0.749986 19.191450 36.064265 8.308339 0.000000 0.000000 0.000000 
